<svg width="25" height="24" viewBox="0 0 25 24" fill="none" xmlns="http://www.w3.org/2000/svg">
<g clip-path="url(#clip0_149_1393)">
<path d="M12.4023 0C5.78514 0 0.402344 5.3828 0.402344 12C0.402344 18.6172 5.78514 24 12.4023 24C19.0195 24 24.4023 18.6163 24.4023 12C24.4023 5.38373 19.0195 0 12.4023 0ZM12.4023 22.141C6.81133 22.141 2.26136 17.592 2.26136 12C2.26136 6.40805 6.81133 1.85902 12.4023 1.85902C17.9934 1.85902 22.5433 6.40805 22.5433 12C22.5433 17.592 17.9943 22.141 12.4023 22.141Z" fill="#12CB84"/>
<path d="M17.0489 10.9864H13.3308V7.2684C13.3308 6.7553 12.9153 6.33887 12.4013 6.33887C11.8873 6.33887 11.4718 6.7553 11.4718 7.2684V10.9864H7.75375C7.23972 10.9864 6.82422 11.4029 6.82422 11.916C6.82422 12.4291 7.23972 12.8455 7.75375 12.8455H11.4718V16.5635C11.4718 17.0766 11.8873 17.4931 12.4013 17.4931C12.9153 17.4931 13.3308 17.0766 13.3308 16.5635V12.8455H17.0489C17.5629 12.8455 17.9784 12.4291 17.9784 11.916C17.9784 11.4029 17.5629 10.9864 17.0489 10.9864Z" fill="#12CB84"/>
</g>
<defs>
<clipPath id="clip0_149_1393">
<rect width="24" height="24" fill="white" transform="translate(0.402344)"/>
</clipPath>
</defs>
</svg>
