<svg width="105" height="146" viewBox="0 0 105 146" fill="none" xmlns="http://www.w3.org/2000/svg">
<g clip-path="url(#clip0_415_2443)">
<path d="M93.2974 108.533C79.6653 105.8 63.8777 104.226 47.0266 104.226C30.1756 104.226 14.388 105.8 0.755823 108.533C8.93511 99.6063 23.8234 93.2919 41.2454 92.1386V56.8577L21.8821 43.9086L28.327 34.3266L52.8221 50.6999V57.6621L62.6072 47.4039L70.9935 55.3557L52.8221 74.3985V92.1386C70.2441 93.299 85.1181 99.6063 93.3045 108.533H93.2974ZM103.218 35.6507C99.6567 25.8268 90.2569 19.2774 80.015 19.014C68.8166 2.66922 47.9188 -4.20757 28.9622 2.61939C17.9423 6.59881 9.14209 14.6146 4.16743 25.2003C-0.807234 35.7789 -1.34967 47.6531 2.64006 58.6445C6.62264 69.6289 14.652 78.4135 25.258 83.3682L30.1684 72.9249C22.3674 69.273 16.4435 62.8091 13.5172 54.7221C10.5838 46.6351 10.9835 37.886 14.6378 30.0981C18.2992 22.3029 24.7869 16.4014 32.8877 13.4827C47.6904 8.15071 64.0846 14.1661 71.8785 27.7987L73.7984 31.1659L77.6454 30.6676C83.969 29.8347 90.1499 33.5863 92.3267 39.5803C93.5757 43.0258 93.4045 46.7419 91.8485 50.0521C90.2926 53.3624 87.5305 55.8753 84.0832 57.1211C81.8849 57.9184 79.601 58.132 77.2957 57.7689L75.5114 69.1662C79.7009 69.8211 84.0261 69.4082 88.023 67.9631C94.3823 65.6708 99.464 61.0436 102.333 54.9356C105.202 48.8348 105.516 41.9865 103.218 35.6436V35.6507Z" fill="#3CBBA2"/>
<path d="M1.63013 145.537V112.919H21.5288V118.835H8.26063V125.355H17.5605V131.228H8.26063V139.614H21.5288V145.53H1.63013V145.537Z" fill="#3CBBA2"/>
<path d="M42.8454 146C33.5027 146 26.2156 138.496 26.2156 129.228C26.2156 119.959 33.6026 112.499 42.8454 112.499C48.0841 112.499 52.188 114.599 55.3641 118.272L50.4108 122.557C48.3553 120.415 45.8287 118.877 42.7954 118.877C37.2355 118.877 32.9317 123.397 32.9317 129.221C32.9317 135.044 37.2284 139.607 42.7954 139.607C45.8716 139.607 48.4481 138.02 50.5465 135.741L55.6853 139.842C52.552 143.572 48.4481 145.993 42.8382 145.993L42.8454 146Z" fill="#3CBBA2"/>
<path d="M58.0481 129.228C58.0481 120.044 65.5708 112.499 74.8635 112.499C84.1562 112.499 91.636 120.044 91.636 129.228C91.636 138.411 84.0705 146 74.8635 146C65.6564 146 58.0481 138.496 58.0481 129.228ZM84.72 129.228C84.72 123.077 80.5162 118.742 74.8635 118.742C69.2108 118.742 64.957 123.12 64.957 129.228C64.957 135.336 69.1608 139.757 74.8635 139.757C80.5661 139.757 84.72 135.378 84.72 129.228Z" fill="#3CBBA2"/>
</g>
<defs>
<clipPath id="clip0_415_2443">
<rect width="104.739" height="146" fill="white"/>
</clipPath>
</defs>
</svg>
