<svg width="28" height="28" viewBox="0 0 28 28" fill="none" xmlns="http://www.w3.org/2000/svg">
<g id="padlock 1">
<g id="Group">
<path id="Vector" d="M13.9995 0.823528C9.88189 0.823528 6.58778 4.11765 6.58778 8.23529V11.5294C5.18778 11.5294 4.11719 12.6 4.11719 14V24.7059C4.11719 26.1059 5.18778 27.1765 6.58778 27.1765H21.4113C22.8113 27.1765 23.8819 26.1059 23.8819 24.7059V14C23.8819 12.6 22.8113 11.5294 21.4113 11.5294V8.23529C21.4113 4.11765 18.1172 0.823528 13.9995 0.823528ZM22.2348 14V24.7059C22.2348 25.2 21.9054 25.5294 21.4113 25.5294H6.58778C6.09366 25.5294 5.76425 25.2 5.76425 24.7059V14C5.76425 13.5059 6.09366 13.1765 6.58778 13.1765H7.41131H20.5878H21.4113C21.9054 13.1765 22.2348 13.5059 22.2348 14ZM8.23483 11.5294V8.23529C8.23483 5.02353 10.7878 2.47059 13.9995 2.47059C17.2113 2.47059 19.7642 5.02353 19.7642 8.23529V11.5294H8.23483Z" fill="#12CB84"/>
<path id="Vector_2" d="M13.9999 15.6471C12.5999 15.6471 11.5293 16.7176 11.5293 18.1176C11.5293 19.1882 12.1881 20.0941 13.1764 20.4235V22.2353C13.1764 22.7294 13.5058 23.0588 13.9999 23.0588C14.494 23.0588 14.8234 22.7294 14.8234 22.2353V20.4235C15.8116 20.0941 16.4705 19.1882 16.4705 18.1176C16.4705 16.7176 15.3999 15.6471 13.9999 15.6471ZM13.9999 18.9412C13.5058 18.9412 13.1764 18.6118 13.1764 18.1176C13.1764 17.6235 13.5058 17.2941 13.9999 17.2941C14.494 17.2941 14.8234 17.6235 14.8234 18.1176C14.8234 18.6118 14.494 18.9412 13.9999 18.9412Z" fill="#12CB84"/>
</g>
</g>
</svg>
