<svg width="96" height="96" viewBox="0 0 96 96" fill="none" xmlns="http://www.w3.org/2000/svg">
<g clip-path="url(#clip0_796_1148)">
<path d="M77.627 27.8906C78.6623 27.8906 79.502 27.0512 79.502 26.0156V5.625C79.502 2.52338 76.9786 0 73.877 0H5.62695C2.52533 0 0.00195312 2.52338 0.00195312 5.625V90.375C0.00195312 93.4766 2.52533 96 5.62695 96H73.877C76.9786 96 79.502 93.4766 79.502 90.375V76.5615C79.502 75.5259 78.6623 74.6865 77.627 74.6865C76.5916 74.6865 75.752 75.5259 75.752 76.5615V90.375C75.752 91.4089 74.9108 92.25 73.877 92.25H5.62695C4.59308 92.25 3.75195 91.4089 3.75195 90.375V5.625C3.75195 4.59113 4.59308 3.75 5.62695 3.75H73.877C74.9108 3.75 75.752 4.59113 75.752 5.625V26.0156C75.752 27.0512 76.5916 27.8906 77.627 27.8906Z" fill="#1C1C1C"/>
<path d="M39.752 10.125C30.2403 10.125 22.502 17.8633 22.502 27.375C22.502 32.3094 24.5851 36.7659 27.9173 39.9129C27.9798 39.9797 28.0461 40.0429 28.1187 40.1004C31.1883 42.909 35.2733 44.6248 39.7518 44.6248C44.2302 44.6248 48.3153 42.9088 51.3848 40.1004C51.4574 40.0429 51.5238 39.9795 51.5862 39.9129C54.9188 36.7659 57.0019 32.3094 57.0019 27.375C57.0019 17.8633 49.2636 10.125 39.752 10.125ZM39.752 40.875C36.6903 40.875 33.8646 39.849 31.5974 38.1247C33.2453 35.2026 36.3205 33.375 39.752 33.375C43.1834 33.375 46.2586 35.2026 47.9065 38.1247C45.6391 39.849 42.8136 40.875 39.752 40.875ZM36.752 26.625V25.4062C36.752 23.7521 38.0978 22.4062 39.752 22.4062C41.4061 22.4062 42.752 23.7521 42.752 25.4062V26.625C42.752 28.2791 41.4061 29.625 39.752 29.625C38.0978 29.625 36.752 28.2791 36.752 26.625ZM50.6157 35.3781C49.2329 33.3272 47.3165 31.7321 45.0914 30.7474C45.9745 29.6061 46.502 28.1764 46.502 26.625V25.4062C46.502 21.6842 43.474 18.6562 39.752 18.6562C36.0299 18.6562 33.002 21.6842 33.002 25.4062V26.625C33.002 28.1764 33.5294 29.6061 34.4125 30.7474C32.1875 31.7321 30.271 33.3272 28.8882 35.3781C27.2328 33.1369 26.252 30.3688 26.252 27.375C26.252 19.9311 32.308 13.875 39.752 13.875C47.1959 13.875 53.2519 19.9311 53.2519 27.375C53.2519 30.3688 52.2711 33.1369 50.6157 35.3781Z" fill="#1C1C1C"/>
<path d="M49.877 82.125H39.752C38.7166 82.125 37.877 82.9644 37.877 84C37.877 85.0356 38.7166 85.875 39.752 85.875H49.877C50.9123 85.875 51.752 85.0356 51.752 84C51.752 82.9644 50.9123 82.125 49.877 82.125Z" fill="#1C1C1C"/>
<path d="M49.8769 71.625H23.252C22.2166 71.625 21.377 72.4644 21.377 73.5C21.377 74.5356 22.2166 75.375 23.252 75.375H49.8769C50.9123 75.375 51.7519 74.5356 51.7519 73.5C51.7519 72.4644 50.9123 71.625 49.8769 71.625Z" fill="#1C1C1C"/>
<path d="M49.8769 61.125H23.252C22.2166 61.125 21.377 61.9644 21.377 63C21.377 64.0356 22.2166 64.875 23.252 64.875H49.8769C50.9123 64.875 51.7519 64.0356 51.7519 63C51.7519 61.9644 50.9123 61.125 49.8769 61.125Z" fill="#1C1C1C"/>
<path d="M16.5695 51.1744C16.2209 50.8256 15.7372 50.625 15.2422 50.625C14.7489 50.625 14.2651 50.8256 13.9166 51.1744C13.5678 51.5231 13.3672 52.0069 13.3672 52.5C13.3672 52.9931 13.5676 53.4769 13.9166 53.8256C14.2672 54.1744 14.7489 54.375 15.2422 54.375C15.7372 54.375 16.2191 54.1744 16.5695 53.8256C16.9182 53.4769 17.1191 52.9931 17.1191 52.5C17.1191 52.0069 16.9184 51.5231 16.5695 51.1744Z" fill="#1C1C1C"/>
<path d="M16.5695 61.6744C16.2191 61.3256 15.7372 61.125 15.2422 61.125C14.7489 61.125 14.2672 61.3256 13.9166 61.6744C13.5678 62.0231 13.3672 62.5069 13.3672 63C13.3672 63.4931 13.5676 63.9769 13.9166 64.3256C14.2672 64.6744 14.7489 64.875 15.2422 64.875C15.7372 64.875 16.2191 64.6744 16.5695 64.3256C16.9182 63.9769 17.1191 63.4931 17.1191 63C17.1191 62.5069 16.9184 62.0231 16.5695 61.6744Z" fill="#1C1C1C"/>
<path d="M16.5695 72.1744C16.2191 71.8256 15.7372 71.625 15.2422 71.625C14.7489 71.625 14.2672 71.8256 13.9166 72.1744C13.5678 72.5231 13.3672 73.0069 13.3672 73.5C13.3672 73.9931 13.5676 74.4769 13.9166 74.8256C14.2651 75.1744 14.7489 75.375 15.2422 75.375C15.7372 75.375 16.2209 75.1744 16.5695 74.8256C16.9182 74.4769 17.1191 73.9931 17.1191 73.5C17.1191 73.0069 16.9184 72.5231 16.5695 72.1744Z" fill="#1C1C1C"/>
<path d="M49.8769 50.625H23.252C22.2166 50.625 21.377 51.4644 21.377 52.5C21.377 53.5356 22.2166 54.375 23.252 54.375H49.8769C50.9123 54.375 51.7519 53.5356 51.7519 52.5C51.7519 51.4644 50.9123 50.625 49.8769 50.625Z" fill="#1C1C1C"/>
<path d="M92.0637 24.435C90.2422 23.3833 88.12 23.1039 86.0879 23.6483C84.0562 24.1928 82.3578 25.4959 81.3063 27.3174L57.7109 68.1855C57.5817 68.4096 57.5 68.658 57.4713 68.9151L55.8104 83.7921C55.7279 84.5323 56.0913 85.2514 56.7363 85.6239C57.0275 85.7919 57.3509 85.8752 57.6736 85.8752C58.0659 85.8752 58.4566 85.7524 58.7857 85.5099L70.8389 76.6329C71.0472 76.4796 71.2216 76.2848 71.3508 76.0607L94.946 35.1926C97.1172 31.4321 95.8242 26.6063 92.0637 24.435ZM60.0127 79.9489L60.88 72.1804L66.3067 75.3135L60.0127 79.9489ZM69.0408 72.5618L61.8961 68.4368L80.8308 35.6411L87.9755 39.7661L69.0408 72.5618ZM91.6985 33.3174L89.8503 36.5186L82.7056 32.3936L84.5538 29.1924C85.1047 28.2383 85.9942 27.5558 87.0584 27.2706C88.123 26.9852 89.2345 27.1318 90.1885 27.6827C91.1427 28.2336 91.8252 29.1231 92.1104 30.1873C92.3956 31.2516 92.2493 32.3633 91.6985 33.3174Z" fill="#1C1C1C"/>
</g>
<defs>
<clipPath id="clip0_796_1148">
<rect width="96" height="96" fill="white"/>
</clipPath>
</defs>
</svg>
