<svg width="48" height="48" viewBox="0 0 48 48" fill="none" xmlns="http://www.w3.org/2000/svg">
<path d="M44 26C43.4696 26 42.9609 26.2107 42.5858 26.5858C42.2107 26.9609 42 27.4696 42 28V36.426C41.9984 37.9038 41.4106 39.3207 40.3657 40.3657C39.3207 41.4106 37.9038 41.9984 36.426 42H11.574C10.0962 41.9984 8.67932 41.4106 7.63434 40.3657C6.58936 39.3207 6.00159 37.9038 6 36.426V28C6 27.4696 5.78929 26.9609 5.41421 26.5858C5.03914 26.2107 4.53043 26 4 26C3.46957 26 2.96086 26.2107 2.58579 26.5858C2.21071 26.9609 2 27.4696 2 28V36.426C2.00265 38.9644 3.01218 41.398 4.80708 43.1929C6.60198 44.9878 9.03563 45.9974 11.574 46H36.426C38.9644 45.9974 41.398 44.9878 43.1929 43.1929C44.9878 41.398 45.9974 38.9644 46 36.426V28C46 27.4696 45.7893 26.9609 45.4142 26.5858C45.0391 26.2107 44.5304 26 44 26Z" fill="#CDE1FF"/>
<path d="M13.4138 17.4139L21.9998 8.82794V33.9999C21.9998 34.5304 22.2106 35.0391 22.5856 35.4142C22.9607 35.7892 23.4694 35.9999 23.9998 35.9999C24.5303 35.9999 25.039 35.7892 25.4141 35.4142C25.7891 35.0391 25.9998 34.5304 25.9998 33.9999V8.82794L34.5858 17.4139C34.963 17.7783 35.4682 17.9798 35.9926 17.9753C36.517 17.9707 37.0187 17.7604 37.3895 17.3896C37.7603 17.0188 37.9706 16.5171 37.9752 15.9927C37.9797 15.4683 37.7782 14.9631 37.4138 14.5859L25.4138 2.58594C25.0388 2.211 24.5302 2.00037 23.9998 2.00037C23.4695 2.00037 22.9609 2.211 22.5858 2.58594L10.5858 14.5859C10.2215 14.9631 10.0199 15.4683 10.0245 15.9927C10.029 16.5171 10.2394 17.0188 10.6102 17.3896C10.981 17.7604 11.4826 17.9707 12.007 17.9753C12.5314 17.9798 13.0366 17.7783 13.4138 17.4139Z" fill="#CDE1FF"/>
</svg>
