<svg width="28" height="28" viewBox="0 0 28 28" fill="none" xmlns="http://www.w3.org/2000/svg">
<g id="people 2">
<g id="Group">
<path id="Vector" d="M3.19202 26.124C3.16402 26.124 3.16402 26.124 3.13602 26.124C2.77202 26.096 2.52002 25.788 2.54802 25.452C2.91202 20.104 7.95202 15.932 14 15.932C20.048 15.932 25.088 20.104 25.452 25.424C25.48 25.788 25.2 26.068 24.864 26.096C24.5 26.124 24.22 25.844 24.192 25.508C23.856 20.832 19.376 17.192 14 17.192C8.59602 17.192 4.11602 20.86 3.80802 25.536C3.78002 25.872 3.50002 26.124 3.19202 26.124Z" fill="#12CB84"/>
<path id="Vector_2" d="M14.0002 14.644C10.4722 14.644 7.61621 11.788 7.61621 8.26C7.61621 4.732 10.4722 1.876 14.0002 1.876C17.5282 1.876 20.3842 4.732 20.3842 8.26C20.3842 11.788 17.5282 14.644 14.0002 14.644ZM14.0002 3.164C11.2002 3.164 8.90421 5.46 8.90421 8.26C8.90421 11.06 11.2002 13.356 14.0002 13.356C16.8002 13.356 19.0962 11.06 19.0962 8.26C19.0962 5.46 16.8002 3.164 14.0002 3.164Z" fill="#12CB84"/>
</g>
</g>
</svg>
